<svg width="941" height="523" xmlns="http://www.w3.org/2000/svg">
 <g>
  <title>background</title>
  <rect x="-1" y="-1" width="943" height="525" id="canvas_background" fill="none"/>
 </g>

 <g>
  <title>Layer 1</title>
  <circle cx="256" cy="256" fill="#8892BE" id="ellipse" r="256"/>
  <path d="m160.100006,230.699997c10,0 16.600006,1.800003 20,5.5c3.300003,3.699997 4.100006,10 2.400009,19c-1.800003,9.300003 -5.300003,16.000015 -10.5,20.000015c-5.200012,4 -13.100006,6 -23.700012,6l-16,0l9.800003,-50.500015l18,0zm-64.100006,101.699997l26.300003,0l6.199997,-32.100006l22.5,0c9.899994,0 18.100006,-1 24.5,-3.099976c6.399994,-2.100006 12.300003,-5.600006 17.5,-10.5c4.399994,-4.100006 8,-8.5 10.699997,-13.400024c2.699997,-4.899994 4.699997,-10.299988 5.800003,-16.199982c2.800003,-14.300018 0.699997,-25.5 -6.300003,-33.400009s-18.099991,-12 -33.300003,-12l-50.599991,0l-23.300003,120.699997z" fill="#FFFFFF" id="svg_1"/>
  <path d="m228.899994,179.600006l26.100006,0l-6.199997,32.099991l23.199997,0c14.600006,0 24.700012,2.600006 30.299988,7.699997c5.600006,5.100006 7.200012,13.400009 5,24.800003l-10.899994,56.199997l-26.5,0l10.399994,-53.399994c1.200012,-6.100006 0.700012,-10.199997 -1.299988,-12.399994c-2.100006,-2.200012 -6.399994,-3.300003 -13.100006,-3.300003l-20.899994,0l-13.399994,69.099991l-26.100006,0l23.399994,-120.799988z" fill="#FFFFFF" id="svg_2"/>
  <path d="m365.299988,230.699997c10,0 16.600006,1.800003 20,5.5c3.299988,3.699997 4.100006,10 2.399994,19c-1.799988,9.300003 -5.299988,16.000015 -10.5,20.000015c-5.199982,4 -13.100006,6 -23.699982,6l-16,0l9.799988,-50.500015l18,0zm-64.099976,101.699997l26.299988,0l6.200012,-32.100006l22.5,0c9.899994,0 18.100006,-1 24.5,-3.099976c6.399994,-2.100006 12.200012,-5.600006 17.5,-10.5c4.399994,-4.100006 8,-8.5 10.700012,-13.400024c2.699982,-4.899994 4.699982,-10.299988 5.799988,-16.199982c2.799988,-14.300018 0.700012,-25.5 -6.299988,-33.400009c-7,-8 -18.100006,-12 -33.300018,-12l-50.600006,0l-23.299988,120.699997z" fill="#FFFFFF" id="svg_3"/>
  <circle id="svg_4" fill="#F0DB4F" r="253.743378" cy="256.70892" cx="687.052652"/>
  <path id="svg_7" fill="#323330" d="m615.156982,165.190857l37.015564,0l0,110.269104c0,49.508575 -22.549622,67.061615 -58.288879,67.061615c-8.934631,0 -19.996948,-1.35025 -27.229675,-4.05069l4.254639,-31.955536c5.105408,1.800293 11.913025,3.150543 19.145996,3.150543c15.742065,0 25.527954,-7.651337 25.527954,-34.205933l-0.425598,-110.269104l0,0z"/>
  <path id="svg_8" fill="#323330" d="m670.012024,302.750244c11.227661,5.858093 29.289734,11.716248 47.351807,11.716248c19.526489,0 29.777771,-8.299011 29.777771,-20.991608c0,-11.716248 -8.786926,-18.55072 -31.730591,-26.361542c-31.242432,-11.228027 -52.233398,-28.802383 -52.233398,-56.628464c0,-31.731461 27.33728,-56.140305 71.759949,-56.140305c21.479187,0 37.100159,4.393616 48.328125,9.76355l-9.763245,34.172348c-7.322388,-3.417252 -20.99115,-8.787155 -39.052979,-8.787155c-18.550354,0 -27.337219,8.787155 -27.337219,18.062515c0,12.204407 10.251587,17.574341 35.147766,26.849701c33.194946,12.204422 48.816162,29.778763 48.816162,56.628464c0,31.731476 -23.920105,58.581177 -76.153137,58.581177c-21.479309,0 -42.958496,-5.858093 -53.697876,-11.716248l8.786865,-35.148682z"/>
 </g>
</svg>