<svg width="468.056" height="468.056" xmlns="http://www.w3.org/2000/svg">

 <g>
  <title>background</title>
  <rect fill="none" id="canvas_background" height="402" width="582" y="-1" x="-1"/>
 </g>
 <g>
  <title>Layer 1</title>
  <path id="svg_2" fill="#333333" d="m275.256989,369.338989c-0.003998,0 -0.006989,0 -0.010986,0l-39.165009,-0.084991c-2.762009,-0.006012 -4.99501,-2.248993 -4.988998,-5.011017c0.005997,-2.761993 2.251999,-5.002991 5.011002,-4.988983l39.164978,0.084991c2.762024,0.006012 4.995026,2.248993 4.989014,5.011017c-0.005981,2.756989 -2.242981,4.988983 -5,4.988983z"/>
  <path id="svg_3" fill="#333333" d="m243.018997,422.811005c-0.003998,0 -0.007004,0 -0.011002,0l-34.056992,-0.074005c-2.762009,-0.005981 -4.99501,-2.248993 -4.988998,-5.010986c0.005997,-2.757996 2.243988,-4.989014 5,-4.989014c0.002991,0 0.006989,0 0.011002,0l34.056992,0.074005c2.762009,0.006012 4.994995,2.248993 4.988998,5.010986c-0.005997,2.756989 -2.244995,4.989014 -5,4.989014z"/>
  <polygon fill="#FFD766" points="172.7239990234375,425.65901148319244 197.47999572753906,256.24185144901276 291.7239990234375,256.4458461999893 208.3300018310547,417.64900171756744 " id="XMLID_75_"/>
  <polygon id="svg_4" fill="#FFC533" points="220.64700317382812,256.29185450077057 197.47999572753906,256.24185144901276 172.7239990234375,425.65901148319244 196.68600463867188,420.26802027225494 "/>
  <path id="svg_5" fill="#333333" d="m172.723999,430.658997c-1.246994,0 -2.464005,-0.46701 -3.397995,-1.332001c-1.208008,-1.118988 -1.787003,-2.761993 -1.549011,-4.390991l24.755005,-169.418152c0.359009,-2.457001 2.466003,-4.277008 4.947006,-4.277008c0.002991,0 0.006989,0 0.011002,0l94.24498,0.20401c1.743011,0.003998 3.358002,0.914993 4.264008,2.404999c0.904022,1.48999 0.968018,3.343964 0.166992,4.892944l-83.394989,161.203186c-0.679001,1.312012 -1.901993,2.256012 -3.343002,2.579987l-35.605988,8.011017c-0.364014,0.082001 -0.733002,0.122009 -1.098007,0.122009zm29.076996,-169.408264l-23.077988,157.934265l26.237,-5.902008l78.557968,-151.854248l-81.71698,-0.178009z"/>
  <path id="svg_6" fill="#333333" d="m274.660004,112.986847c-0.003998,0 -0.006989,0 -0.011017,0l-39.164993,-0.084c-2.760986,-0.005997 -4.994995,-2.249001 -4.988998,-5.011002c0.006012,-2.757996 2.244003,-4.988998 5,-4.988998c0.003998,0 0.007004,0 0.011002,0l39.164993,0.084c2.762024,0.005997 4.994995,2.249001 4.989014,5.011002c-0.006012,2.758003 -2.243011,4.988998 -5,4.988998z"/>
  <path id="svg_7" fill="#333333" d="m242.190002,59.375847c-0.003998,0 -0.007004,0 -0.011002,0l-34.057007,-0.072998c-2.761002,-0.006001 -4.994995,-2.249001 -4.988998,-5.011002c0.006012,-2.757999 2.244003,-4.988998 5,-4.988998c0.003006,0 0.007004,0 0.011002,0l34.057007,0.072998c2.761993,0.006001 4.994995,2.249001 4.988998,5.011002c-0.005005,2.757999 -2.242996,4.988998 -5,4.988998z"/>
  <polygon fill="#FFD766" points="171.85899353027344,45.37284433841705 197.35000610351562,214.900848031044 291.5950012207031,215.1038509607315 207.5,53.5378452539444 " id="XMLID_70_"/>
  <polygon id="svg_8" fill="#FFC533" points="220.52699279785156,214.88784754276276 195.86399841308594,50.871848702430725 171.85899353027344,45.37284433841705 197.35000610351562,214.89984095096588 "/>
  <path id="svg_9" fill="#333333" d="m291.595001,220.104843c-0.003998,0 -0.006989,0 -0.010986,0l-94.24501,-0.20401c-2.470001,-0.005997 -4.56601,-1.812988 -4.934006,-4.256989l-25.490005,-169.528c-0.246002,-1.634998 0.332993,-3.285999 1.544998,-4.410004c1.212997,-1.125 2.901993,-1.576 4.515991,-1.206997l35.642014,8.165005c1.429001,0.327 2.641998,1.265999 3.317993,2.564999l84.094986,161.565998c0.808014,1.551987 0.745026,3.412994 -0.163971,4.906998c-0.90799,1.492004 -2.527008,2.403 -4.272003,2.403zm-89.938995,-10.194992l81.69101,0.177002l-79.215012,-152.191006l-26.237,-6.011002l23.761002,158.025005z"/>
  <path id="svg_10" fill="#F7F7F7" d="m105.556,281.799316l281.709015,-0.081024c26.578003,0.058014 51.759003,-11.659729 68.738007,-31.984436l0,0c8.596985,-10.291 7.872986,-25.460007 -1.669006,-34.969009l0,0c-15.966003,-15.910004 -37.580994,-24.877991 -60.100006,-24.932999l-288.629997,0.684998l-47.522011,-52.361008c-10.282001,-11.328987 -28.942001,-1.62999 -25.575001,13.292999l19.104,84.675018l-19.214001,84.57814c-3.386999,14.911011 15.223,24.605011 25.535,13.300995l47.624001,-52.203674z"/>
  <path id="svg_11" fill="#EDEDED" d="m51.694,162.368851l47.523003,52.360992l288.629982,-0.684998c22.518005,0.056 44.133026,9.02301 60.100006,24.932999c3.699005,3.686005 6.055023,8.225006 7.075012,12.998001c0.664001,-0.742996 1.339996,-1.473999 1.980988,-2.241989l0,0c8.597015,-10.291 7.873016,-25.460007 -1.668976,-34.968002c-15.966003,-15.910004 -37.581024,-24.878006 -60.100006,-24.932999l-288.630013,0.684998l-47.521996,-52.362015c-10.283001,-11.328987 -28.942001,-1.62999 -25.575001,13.292999l1.605999,7.118011c5.322002,-2.167999 11.841,-1.421997 16.581001,3.802002z"/>
  <path id="svg_12" fill="#333333" d="m48,343.92099c-3.139999,0 -6.323002,-0.757996 -9.306,-2.315002c-8.113001,-4.238983 -12.201,-13.084991 -10.173,-22.010986l18.963001,-83.475159l-18.855001,-83.569992c-2.018,-8.942001 2.097,-17.794006 10.238001,-22.027008c8.142998,-4.232994 17.753998,-2.516998 23.917,4.272995l46.030003,50.716019l286.408989,-0.680008c24.029999,0.059998 46.623016,9.432999 63.640991,26.391998c11.455994,11.416 12.307007,29.350006 1.977997,41.716003c-17.938995,21.475616 -44.311981,33.778351 -72.377991,33.779358c-0.069977,0 -0.138,0 -0.207977,0l-279.49202,0.078979l-46.138,50.574799c-3.915993,4.292023 -9.207993,6.548004 -14.625992,6.548004zm0.25,-205.717148c-1.737,0 -3.391998,0.475006 -4.77,1.19101c-3.273998,1.701996 -6.333,5.473999 -5.096001,10.952988l19.104,84.675003c0.164001,0.728012 0.164001,1.481003 -0.000999,2.208008l-19.214001,84.57814c-1.242001,5.466003 1.795002,9.231018 5.052002,10.933014c3.27,1.708008 8.118,2.052002 11.912998,-2.109009l47.625,-52.203613c0.946999,-1.037964 2.287003,-1.629944 3.692001,-1.629944l281.709984,-0.080017c0.062012,0 0.125,0 0.187012,0c25.106995,0 48.681,-10.995758 64.714996,-30.18956c6.980988,-8.359009 6.395996,-20.492004 -1.360992,-28.222c-15.138,-15.085999 -35.231995,-23.423004 -56.583008,-23.475998l-288.605011,0.684998c-0.003998,0 -0.008003,0 -0.012001,0c-1.410004,0 -2.753998,-0.596008 -3.703003,-1.639999l-47.522999,-52.360001c-2.18998,-2.411011 -4.736977,-3.313019 -7.129978,-3.313019z"/>
  <path id="svg_13" fill="#333333" d="m332.743988,253.29985c-2.756989,0 -4.993988,-2.231003 -5,-4.988998l-0.053009,-24.645996c-0.005981,-2.762009 2.227997,-5.005005 4.989014,-5.011002c0.003998,0 0.007996,0 0.010986,0c2.757019,0 4.994019,2.230988 5,4.988998l0.053009,24.645996c0.006012,2.761993 -2.227997,5.005005 -4.988983,5.011002c-0.003998,0 -0.007996,0 -0.011017,0z"/>
  <path id="svg_14" fill="#333333" d="m332.743988,253.29985c-2.756989,0 -4.993988,-2.231003 -5,-4.988998l-0.053009,-24.645996c-0.005981,-2.762009 2.227997,-5.005005 4.989014,-5.011002c0.003998,0 0.007996,0 0.010986,0c2.757019,0 4.994019,2.230988 5,4.988998l0.053009,24.645996c0.006012,2.761993 -2.227997,5.005005 -4.988983,5.011002c-0.003998,0 -0.007996,0 -0.011017,0z"/>
  <path id="svg_15" fill="#333333" d="m374.476013,253.276855c-2.756989,0 -4.993988,-2.231003 -5,-4.988998l-0.054016,-24.645996c-0.005981,-2.762009 2.228027,-5.005005 4.989014,-5.011002c0.003998,0 0.006989,0 0.010986,0c2.757019,0 4.994019,2.231003 5,4.988998l0.054016,24.645996c0.006012,2.762009 -2.227997,5.005005 -4.989014,5.011002c-0.005005,0 -0.007996,0 -0.010986,0z"/>
  <path id="svg_16" fill="#333333" d="m290.174011,253.206848c-2.756989,0 -4.993988,-2.231003 -5,-4.988998l-0.054016,-24.645996c-0.005981,-2.762009 2.228027,-5.005005 4.989014,-5.011002c0.003998,0 0.006989,0 0.010986,0c2.757019,0 4.994019,2.231003 5,4.988998l0.054016,24.645996c0.006012,2.762009 -2.227997,5.005005 -4.989014,5.011002c-0.003998,0 -0.006989,0 -0.010986,0z"/>
  <path id="svg_17" fill="#333333" d="m248.453995,253.116852c-2.757004,0 -4.994003,-2.231003 -5,-4.988998l-0.054001,-24.646011c-0.005997,-2.761993 2.227997,-5.00499 4.988998,-5.010986c0.003998,0 0.007004,0 0.011002,0c2.756989,0 4.994003,2.230988 5,4.988998l0.054001,24.645996c0.005997,2.761993 -2.228012,5.005005 -4.988998,5.011002c-0.003998,0 -0.007004,0 -0.011002,0z"/>
  <path id="svg_18" fill="#333333" d="m206.733002,253.026855c-2.755997,0 -4.994003,-2.231003 -5,-4.988998l-0.053009,-24.645996c-0.005997,-2.762009 2.228012,-5.005005 4.989014,-5.011002c0.002991,0 0.006989,0 0.010986,0c2.757004,0 4.994003,2.231003 5,4.988998l0.053009,24.645996c0.005997,2.762009 -2.227997,5.005005 -4.988998,5.011002c-0.003006,0 -0.007004,0 -0.011002,0z"/>
  <path id="svg_19" fill="#333333" d="m5,240.810852c-2.76,0 -4.999,-2.236008 -5,-4.997009c-0.001,-2.761993 2.236,-5.001999 4.998,-5.002991l155.942994,-0.082001c0,0 0.000992,0 0.001999,0c2.759995,0 4.998993,2.235992 5,4.996994c0.000992,2.762009 -2.236008,5.001999 -4.998001,5.003006l-155.942992,0.082001c0,0 -0.001,0 -0.002,0z"/>
 </g>
</svg>