<?xml version="1.0" ?><svg viewBox="0 0 480 480" xmlns="http://www.w3.org/2000/svg"><g data-name="11-microscope" id="_11-microscope"><g id="flat"><rect height="48" rx="8" style="fill:#e7f1d1" width="144" x="200" y="312"/><rect height="16" style="fill:#857a6b" width="176" x="192" y="344"/><path d="M467.831,216.977l-176-96a8,8,0,0,0-10.986,3.445l-16,32a8,8,0,0,0,2.717,10.234L360,228.281V400a8,8,0,0,0,8,8h96a8,8,0,0,0,8-8V224A8,8,0,0,0,467.831,216.977Z" style="fill:#e0deda"/><path d="M400,400V228.281l-92.438-61.625a8,8,0,0,1-2.717-10.234l11.136-22.272-24.15-13.173a8,8,0,0,0-10.986,3.445l-16,32a8,8,0,0,0,2.717,10.234L360,228.281V400a8,8,0,0,0,8,8h40A8,8,0,0,1,400,400Z" style="fill:#d1cdc7"/><path d="M472,392H160a56,56,0,0,0-56,56v16a8,8,0,0,0,8,8H464a8,8,0,0,0,8-8Z" style="fill:#f9cc5c"/><path d="M464,432H112a7.967,7.967,0,0,1-5.086-1.825A55.908,55.908,0,0,0,104,448v16a8,8,0,0,0,8,8H464a8,8,0,0,0,8-8V424A8,8,0,0,1,464,432Z" style="fill:#f7b964"/><path d="M426.676,66.579,381.421,21.324a8,8,0,0,0-11.313,0L234.343,157.088a8,8,0,0,0,0,11.314L279.6,213.657a8,8,0,0,0,11.314,0L426.676,77.892A8,8,0,0,0,426.676,66.579Z" style="fill:#d1cdc7"/><path d="M426.676,66.579l-15.149-15.15L264.449,198.508,279.6,213.657a8,8,0,0,0,11.314,0L426.676,77.892A8,8,0,0,0,426.676,66.579Z" style="fill:#c2bdb5"/><rect height="96" style="fill:#4890df" transform="translate(81.608 296.235) rotate(-45)" width="16" x="390.392" y="1.608"/><path d="M304,200H240a8,8,0,0,0-8,8v48a8,8,0,0,0,2.343,5.657l16,16A8,8,0,0,0,256,280h32a8,8,0,0,0,5.657-2.343l16-16A8,8,0,0,0,312,256V208A8,8,0,0,0,304,200Z" style="fill:#857a6b"/><path d="M242.333,201.76l-17.587-61.536a8,8,0,0,0-9.89-5.494L168.7,147.921a8,8,0,0,0-4.8,3.807l-10.988,19.781a8,8,0,0,0-.7,6.083l8.794,30.768a8,8,0,0,0,3.807,4.795l19.78,10.988a8,8,0,0,0,6.083.7L236.84,211.65a8,8,0,0,0,5.493-9.89Z" style="fill:#857a6b"/><circle cx="272" cy="160" r="72" style="fill:#acc949"/><path d="M296,208A71.969,71.969,0,0,1,234.538,98.538a71.984,71.984,0,1,0,98.924,98.924A71.564,71.564,0,0,1,296,208Z" style="fill:#9ec645"/><circle cx="272" cy="160" r="24" style="fill:#a39b90"/><circle cx="416" cy="352" r="24" style="fill:#4890df"/><circle cx="128" cy="352" r="120" style="fill:#e7f1d1"/><circle cx="128" cy="352" r="120" style="fill:#9ec645"/><circle cx="128" cy="352" r="104" style="fill:#e7f1d1"/><path d="M152,432A103.947,103.947,0,0,1,67.476,267.476,103.967,103.967,0,1,0,212.524,412.524,103.428,103.428,0,0,1,152,432Z" style="fill:#d5e4a4"/><circle cx="96" cy="336" r="24" style="fill:#c1d776"/><circle cx="176" cy="384" r="24" style="fill:#c1d776"/><circle cx="136" cy="280" r="8" style="fill:#c1d776"/><circle cx="168" cy="280" r="8" style="fill:#c1d776"/><circle cx="56" cy="376" r="8" style="fill:#c1d776"/><circle cx="72" cy="296" r="8" style="fill:#c1d776"/><circle cx="184" cy="328" r="8" style="fill:#c1d776"/><circle cx="136" cy="424" r="8" style="fill:#c1d776"/><circle cx="136" cy="376" r="8" style="fill:#c1d776"/><circle cx="104" cy="408" r="8" style="fill:#c1d776"/></g></g></svg>