<?xml version="1.0" ?><svg viewBox="0 0 64 64" xmlns="http://www.w3.org/2000/svg"><title/><g data-name="16-Engineer" id="_16-Engineer"><polygon points="43 52 43 57 40 58 37 57 37 52 43 52" style="fill:#414952"/><polygon points="27 52 27 57 24 58 21 57 21 52 27 52" style="fill:#414952"/><polygon points="32 41 29 44 25 40 25 37.63 28 37 32 41" style="fill:#414952"/><polygon points="39 37.63 39 40 35 44 32 41 36 37 39 37.63" style="fill:#414952"/><path d="M29,44l3-3V63H9V41l16-3.37V40ZM27,57V52H21v5l3,1Z" style="fill:#e9edf5"/><path d="M49,63H32V41l3,3,4-4V37.63L55,41V63Zm-6-6V52H37v5l3,1Z" style="fill:#e9edf5"/><polygon points="24 61 27 60 27 57 24 58 21 57 21 60 24 61" style="fill:#afb4c8"/><polygon points="29 44 25 40 25 37.63 9 41 9 44 25 40.63 25 43 29 47 32 44 32 41 29 44" style="fill:#afb4c8"/><polygon points="40 61 43 60 43 57 40 58 37 57 37 60 40 61" style="fill:#afb4c8"/><polygon points="39 37.63 39 40 35 44 32 41 32 44 35 47 39 43 39 40.63 55 44 55 41 39 37.63" style="fill:#afb4c8"/><path d="M40,16H20s0-4,12-4,12,4,12,4Z" style="fill:#fe6a16"/><polygon points="35 1.38 35 8 29 8 29 1.38 29 1 35 1 35 1.38" style="fill:#fe6a16"/><path d="M25,3.27a11.425,11.425,0,0,1,4-1.89V8h6V1.38a11.425,11.425,0,0,1,4,1.89A11.928,11.928,0,0,1,44,13v3s0-4-12-4-12,4-12,4V13A11.928,11.928,0,0,1,25,3.27Z" style="fill:#ffa426"/><polygon points="36 33 36 37 32 41 28 37 28 33 36 33" style="fill:#ffb680"/><rect height="3" style="fill:#eb975d" width="8" x="28" y="33"/><path d="M24,19v5a4,4,0,0,1,0-8Z" style="fill:#eb975d"/><path d="M40,16a4,4,0,0,1,0,8V16Z" style="fill:#eb975d"/><path d="M27,23a2.006,2.006,0,0,0,2,2h6a2.006,2.006,0,0,0,2-2V22l3-3V29a4,4,0,0,1-4,4H28a4,4,0,0,1-4-4V19l3,3Z" style="fill:#bc6829"/><path d="M37,22v1a2.006,2.006,0,0,1-2,2H29a2.006,2.006,0,0,1-2-2V22l-3-3v3l3,3v1a2.006,2.006,0,0,0,2,2h6a2.006,2.006,0,0,0,2-2V25l3-3V19Z" style="fill:#d1813b"/><path d="M40,16v3l-3,3v1a2.006,2.006,0,0,1-2,2H29a2.006,2.006,0,0,1-2-2V22l-3-3V16Z" style="fill:#ffdaaa"/><rect height="3" style="fill:#ffb680" width="16" x="24" y="16"/><path d="M40,24a4,4,0,0,0,0-8" style="fill:none;stroke:#000;stroke-linejoin:round;stroke-width:2px"/><path d="M24,16a4,4,0,0,0,0,8" style="fill:none;stroke:#000;stroke-linejoin:round;stroke-width:2px"/><polyline points="28 32 28 33 28 37 25 37.63 9 41 9 63 15 63 32 63 49 63 55 63 55 41 39 37.63 36 37 36 33 36 32" style="fill:none;stroke:#000;stroke-linejoin:round;stroke-width:2px"/><polyline points="28 37 32 41 36 37" style="fill:none;stroke:#000;stroke-linejoin:round;stroke-width:2px"/><polyline points="39 37 39 37.63 39 40 35 44 32 41 29 44 25 40 25 37.63 25 37" style="fill:none;stroke:#000;stroke-linejoin:round;stroke-width:2px"/><line style="fill:none;stroke:#000;stroke-linejoin:round;stroke-width:2px" x1="49" x2="49" y1="63" y2="50"/><line style="fill:none;stroke:#000;stroke-linejoin:round;stroke-width:2px" x1="15" x2="15" y1="63" y2="50"/><path d="M40,16V29a4,4,0,0,1-4,4H28a4,4,0,0,1-4-4V16" style="fill:none;stroke:#000;stroke-linejoin:round;stroke-width:2px"/><path d="M24,19l3,3v1a2.006,2.006,0,0,0,2,2h6a2.006,2.006,0,0,0,2-2V22l3-3" style="fill:none;stroke:#000;stroke-linejoin:round;stroke-width:2px"/><path d="M35,1.38a11.425,11.425,0,0,1,4,1.89A11.928,11.928,0,0,1,44,13v3s0-4-12-4-12,4-12,4V13a11.928,11.928,0,0,1,5-9.73,11.425,11.425,0,0,1,4-1.89" style="fill:none;stroke:#000;stroke-linejoin:round;stroke-width:2px"/><polygon points="29 1.38 29 1 35 1 35 1.38 35 8 29 8 29 1.38" style="fill:none;stroke:#000;stroke-linejoin:round;stroke-width:2px"/><polyline points="39 3 39 3.27 39 9" style="fill:none;stroke:#000;stroke-linejoin:round;stroke-width:2px"/><polyline points="25 3 25 3.27 25 9" style="fill:none;stroke:#000;stroke-linejoin:round;stroke-width:2px"/><polyline points="20 16 24 16 40 16 44 16" style="fill:none;stroke:#000;stroke-linejoin:round;stroke-width:2px"/><line style="fill:none;stroke:#000;stroke-linejoin:round;stroke-width:2px" x1="32" x2="32" y1="41" y2="63"/><polygon points="21 52 27 52 27 57 24 58 21 57 21 52" style="fill:none;stroke:#000;stroke-linejoin:round;stroke-width:2px"/><polygon points="37 52 43 52 43 57 40 58 37 57 37 52" style="fill:none;stroke:#000;stroke-linejoin:round;stroke-width:2px"/></g></svg>