<svg width="512" height="512" xmlns="http://www.w3.org/2000/svg">

 <g>
  <title>background</title>
  <rect fill="none" id="canvas_background" height="402" width="582" y="-1" x="-1"/>
 </g>
 <g>
  <title>Layer 1</title>
  <path fill="#26d63d" id="svg_2" d="m61.349998,431.079987c-11.258999,-20.945984 -11.258999,-20.945984 -23.445999,-27.835999c-2.940998,-1.661987 -6.42,-3.631012 -10.796999,-6.261993c-3.519001,15.523987 -5.513,31.621002 -5.788,48.130981l48.315002,0c-1.885002,-2.585999 -3.839005,-5.78299 -5.973003,-9.737976l-2.311001,-4.295013z"/>
  <path fill="#47a9d1" id="svg_3" d="m111.697998,393.557007c9.529999,-6.182983 11.203003,-6.957001 16.095001,-8.942993c2.141006,-0.868011 5.072006,-2.05899 10.063995,-4.360016c2.5,-1.127991 16.981003,-9.807983 19.622009,-11.994995c5.153,-9.878998 5.175995,-10.243988 5.487991,-15.143005c0.138,-2.161987 0.327011,-5.125 0.919006,-9.733978c2.923004,-22.729004 -4.208008,-24.920013 -21.434006,-30.213013c-2.912994,-0.894989 -5.923996,-1.820007 -9.167999,-2.938995c-3.710999,-1.289001 -7.228996,-1.643005 -10.630997,-1.985016c-8.961998,-0.90097 -18.228996,-1.834991 -20.586998,-21.062988c-0.826004,-6.641998 -1.664001,-10.832001 -2.362,-13.466003c-24.413002,21.911011 -44.228001,48.83902 -57.838001,79.134003l0,-88.705994c4.506001,-1.644989 7.737999,-5.970001 7.737999,-11.048004c0,-6.453995 -5.265999,-11.705002 -11.737999,-11.705002c-6.470001,0 -11.733002,5.251007 -11.733002,11.705002c0,5.078003 3.230001,9.402008 7.733002,11.046997l0,108.23999c0,0.199005 0.030998,0.391022 0.058998,0.582001c-1.780998,5.215027 -3.393999,10.508026 -4.814999,15.877014c5.308998,3.242004 9.378998,5.542999 12.732998,7.438995c14.200001,8.028992 14.665001,8.893005 26.555004,31.013l2.306,4.287018c3.818001,7.079987 6.864998,11.322998 9.729996,13.533997l11.574005,0c1.431,-0.732025 2.983994,-1.684998 4.653,-2.873016c0.049995,-1.184998 -0.082001,-3.382996 -0.191002,-5.218994c-0.677002,-11.302002 -1.936005,-32.337006 15.227997,-43.466003z"/>
  <path fill="#5e5e23" id="svg_4" d="m219.253998,208.315002c1.210999,-0.188004 2.425995,-0.363998 3.641998,-0.533005c0.625,-0.08699 1.25,-0.171005 1.876007,-0.252991c1.048996,-0.138 2.098999,-0.274002 3.151001,-0.39801c0.916992,-0.108994 1.835999,-0.205994 2.75499,-0.304001c0.831009,-0.087997 1.660004,-0.184998 2.493011,-0.265991c1.700989,-0.165009 3.405991,-0.307999 5.112991,-0.438004c0.649002,-0.048996 1.300003,-0.087997 1.951004,-0.132004c1.214005,-0.082001 2.429001,-0.158005 3.645996,-0.222992c0.675003,-0.036011 1.352005,-0.067001 2.028,-0.098007c1.262009,-0.056 2.526001,-0.102005 3.791,-0.138992c0.589005,-0.016998 1.178009,-0.03801 1.768005,-0.05101c1.841995,-0.041 3.684998,-0.067001 5.531998,-0.067001c1.949005,0 3.893005,0.026001 5.834991,0.070999c0.610016,0.014008 1.21701,0.042007 1.825012,0.061005c1.334991,0.041 2.669006,0.084 4,0.145996c0.718994,0.034012 1.436005,0.080002 2.153992,0.119003c1.214996,0.067001 2.431,0.137009 3.644012,0.223007c0.773987,0.054001 1.546997,0.118988 2.320007,0.179993c1.140991,0.091003 2.279999,0.186005 3.417999,0.292999c0.835999,0.078003 1.669983,0.165009 2.503998,0.251007c1.04599,0.108994 2.092987,0.223999 3.135986,0.345993c0.925995,0.108002 1.850006,0.223007 2.770996,0.341003c0.906006,0.117004 1.811005,0.240005 2.714996,0.367004c1.063019,0.147995 2.123016,0.302002 3.181,0.463989c0.684998,0.105011 1.368011,0.21701 2.050995,0.32901c1.280029,0.207993 2.559021,0.42099 3.833008,0.647995c0.313995,0.057007 0.628021,0.117004 0.94101,0.175003c14.143005,2.584 27.953003,6.403992 41.303986,11.404999c-0.125,-21.807007 -10.572998,-42.046997 -28.187988,-54.927994c-8.072998,10.607986 -19.075012,18.347992 -31.462006,22.452988c-0.481995,0.161011 -0.962982,0.327011 -1.449982,0.477005c-0.531006,0.162003 -1.068024,0.307007 -1.604004,0.455994c-0.619019,0.173004 -1.239014,0.34201 -1.865997,0.497009c-0.489014,0.121002 -0.979004,0.231003 -1.473022,0.341003c-0.686981,0.153 -1.376984,0.294998 -2.070984,0.425995c-0.463013,0.087006 -0.925995,0.171997 -1.390991,0.248993c-0.742004,0.124008 -1.488007,0.229004 -2.238007,0.327011c-0.434021,0.056992 -0.867004,0.117996 -1.303009,0.166c-0.821991,0.090988 -1.652008,0.156998 -2.481995,0.216995c-0.371002,0.026993 -0.739014,0.063995 -1.110992,0.084c-1.200012,0.065994 -2.407013,0.104996 -3.624023,0.104996s-2.424988,-0.039993 -3.623993,-0.104996c-0.372009,-0.020996 -0.73999,-0.057999 -1.109985,-0.084c-0.832001,-0.059998 -1.661011,-0.126007 -2.484009,-0.216995c-0.436005,-0.048004 -0.867996,-0.109009 -1.300995,-0.166c-0.75,-0.098007 -1.498001,-0.20401 -2.240005,-0.327011c-0.464005,-0.076996 -0.927002,-0.161987 -1.389008,-0.248993c-0.694992,-0.130997 -1.385986,-0.272995 -2.07399,-0.425995c-0.492004,-0.109009 -0.98201,-0.220001 -1.470001,-0.340012c-0.628006,-0.154999 -1.25,-0.324997 -1.871002,-0.498993c-0.535004,-0.147995 -1.070007,-0.292999 -1.600006,-0.455002c-0.48999,-0.149994 -0.972992,-0.317993 -1.457993,-0.479004c-12.384003,-4.104996 -23.384003,-11.843994 -31.455994,-22.449997c-16.588013,12.128998 -26.820007,30.794006 -28.057007,51.149002c11.802994,-3.787994 23.925995,-6.673004 36.285995,-8.621994c0.244003,-0.03801 0.488007,-0.078003 0.733002,-0.117004z"/>
  <path fill="#f2f4b0" id="svg_5" d="m237.300995,177.934998c0.088989,0.042999 0.177994,0.089996 0.26799,0.132996c0.664001,0.319 1.339005,0.619003 2.018005,0.91301c0.315994,0.136993 0.632996,0.270996 0.951004,0.401993c0.585999,0.242004 1.175995,0.477005 1.770996,0.699997c0.472992,0.17601 0.949997,0.339005 1.427994,0.502014c0.488007,0.167999 0.973999,0.341995 1.468002,0.497986c0.96701,0.302002 1.943008,0.583008 2.928009,0.833008c0.292999,0.074997 0.592987,0.134995 0.888,0.205994c0.766998,0.182999 1.535995,0.356003 2.312988,0.508011c0.365005,0.070999 0.734009,0.132996 1.103012,0.196991c0.722992,0.126007 1.44899,0.240997 2.179001,0.339005c0.375992,0.050995 0.751999,0.100998 1.12999,0.143997c0.764999,0.087997 1.534988,0.156998 2.306015,0.214996c0.334991,0.025009 0.666992,0.057007 1.001984,0.077011c1.101013,0.062988 2.205994,0.102997 3.31601,0.102997s2.216003,-0.040009 3.31601,-0.102997c0.335999,-0.020004 0.667999,-0.052002 1.001984,-0.077011c0.770996,-0.057999 1.540009,-0.125992 2.306,-0.214996c0.377991,-0.042999 0.753998,-0.093002 1.131012,-0.143997c0.729004,-0.098999 1.454987,-0.212997 2.177979,-0.339005c0.369019,-0.063995 0.738007,-0.125992 1.104004,-0.197998c0.774994,-0.151001 1.544006,-0.324005 2.311005,-0.507004c0.29599,-0.070999 0.596008,-0.130997 0.890991,-0.205994c0.984009,-0.251007 1.959015,-0.531006 2.927002,-0.833008c0.494995,-0.154999 0.981018,-0.329987 1.471008,-0.498993c0.47699,-0.162994 0.951996,-0.326004 1.424988,-0.501007c0.596008,-0.222992 1.186005,-0.457993 1.771027,-0.699997c0.317993,-0.12999 0.634979,-0.264999 0.949982,-0.401001c0.679016,-0.293991 1.354004,-0.595001 2.02002,-0.914993c0.088989,-0.042007 0.174988,-0.087006 0.263,-0.130005c19.139984,-9.321991 32.360992,-28.966003 32.360992,-51.643997c0,-31.653999 -25.760986,-57.405998 -57.424988,-57.405998c-31.665024,0 -57.425003,25.751999 -57.425003,57.405998c-0.004013,22.675995 13.215988,42.319 32.353989,51.641998z"/>
  <path fill="#4772d1" id="svg_6" d="m480.227997,373.463989c0.097992,-0.346985 0.166992,-0.705994 0.166992,-1.083008l0,-108.23999c4.503021,-1.644989 7.732025,-5.968994 7.732025,-11.046997c0,-6.45401 -5.263,-11.705002 -11.732025,-11.705002c-6.481995,0 -11.756989,5.250992 -11.756989,11.705002c0,5.080994 3.23999,9.406982 7.756989,11.050995l0,89.321014c-12.135986,-27.234009 -29.280975,-51.763 -50.273987,-72.39502c-3.45401,2.447998 -9.182007,6.315002 -16.604004,10.644012c-1.877991,1.132996 -6.976013,8.71698 -7.920013,11.768005c-2.131989,6.923981 -5.656982,11.151978 -10.474976,12.565979c-9.160004,2.688019 -19.451996,-5.998993 -26.966003,-12.342987c-2.063995,-1.743011 -4.850006,-4.095001 -5.979004,-4.658997c-19.315002,-0.264008 -23.175995,2.768005 -34.485992,11.613983c-2.545013,1.989014 -5.428009,4.244995 -8.895996,6.78302c-2.179016,1.595978 -3.39502,4.424988 -3.613007,8.406982c-0.559021,10.15802 5.519989,23.761993 9.731995,27.623993c6.34201,5.774017 10.402008,9.831024 13.368011,12.794006c7.496979,7.488007 7.496979,7.488007 24.113983,12.894012c1.730011,0.562988 3.632996,1.181 5.729004,1.867981c10.924011,3.596008 14.94101,3.980011 17.600006,4.234009c4.72998,0.453003 6.855988,0.96701 20.040985,8.721008c9.610016,5.644989 12.453003,11.152008 14.960999,16.013c1.51001,2.924988 2.813019,5.450989 5.556,8.160004c2.365997,2.334991 4.902008,5.283997 7.588013,8.404999c6.639984,7.720001 14.902008,17.325989 21.541992,18.087006c9.205994,1.033997 10.431,-0.998016 11.173004,-6.25c0.86499,-6.102997 22.546997,-31.187012 28.993988,-38.212006c-1.932983,-9.113983 -4.398987,-18.031006 -7.35199,-26.725006z"/>
  <path fill="#22d63a" id="svg_7" d="m489.450012,409.979004c-8.072998,9.253998 -21.667999,26.07901 -22.967987,29.712006c-0.312012,2.117981 -0.820007,3.902985 -1.479004,5.423004l27.662994,0c-0.199005,-11.948029 -1.294006,-23.680023 -3.216003,-35.13501z"/>
  <path fill="#475ed1" id="svg_8" d="m273.505005,431.981995c-7.718018,-15.307007 -7.645996,-19.602997 -6.817017,-26.471008c0.382019,-3.167999 0.814026,-6.76001 0.02002,-13.483002c-0.748016,-2.979004 -12.975006,-11.759003 -18.711014,-11.906982c-0.582001,2.421997 0.021011,6.978973 0.654999,11.773987c1.595001,12.062012 3.780014,28.580994 -4.959991,47.105011c-0.779999,1.67099 -1.563004,3.78299 -2.276001,6.112l50.518997,0c-8.174988,-3.027008 -15.473999,-7.266998 -18.429993,-13.130005z"/>
  <path fill="#20d839" id="svg_9" d="m419.804993,431.781006c-2.575012,-2.993988 -5.007996,-5.821991 -7.143005,-7.929993c-3.64801,-3.602997 -5.451996,-7.098999 -7.044006,-10.18399c-2.302002,-4.460022 -4.289978,-8.312012 -11.904999,-12.784027c-12.289001,-7.22699 -13.503998,-7.342987 -16.75,-7.653992c-3.013977,-0.287994 -7.565979,-0.725006 -19.333984,-4.597992c-2.085999,-0.68399 -3.980011,-1.299988 -5.707001,-1.860016c-17.748016,-5.77298 -18.440002,-5.998993 -27.292999,-14.84198c-2.910004,-2.907013 -6.895996,-6.889008 -13.111023,-12.548004c-6.253998,-5.733002 -12.992981,-21.813995 -12.323975,-33.970001c0.35199,-6.39801 2.729004,-11.386017 6.875,-14.421997c3.367004,-2.465027 6.196991,-4.678009 8.694,-6.631012c11.983002,-9.371002 17.436981,-13.653992 39.931,-13.307007c2.916992,0.03302 5.817993,2.481995 10.625,6.541016c5.429993,4.583984 14.515991,12.259003 19.550995,10.778992c2.589996,-0.76001 4.192993,-4.362 5.083984,-7.25c1.200012,-3.880005 7.304016,-13.882996 11.552002,-16.330017c6.308014,-3.677979 11.317017,-6.991974 14.684998,-9.333984c-6.710999,-6.156006 -13.783997,-11.921997 -21.173004,-17.278015l0,-98.103973c4.506012,-1.617996 7.738007,-5.872009 7.738007,-10.867004c0,-6.362991 -5.265991,-11.539993 -11.738007,-11.539993c-6.478973,0 -11.751984,5.177002 -11.751984,11.539993c0,4.997009 3.238007,9.251999 7.751984,10.869003l0,92.550003c-32.602997,-21.650009 -70.865967,-35.419998 -112.066986,-38.537003c-0.010986,-0.001007 -0.020996,-0.001999 -0.031006,-0.001999c-1.792999,-0.13501 -3.59198,-0.244995 -5.394989,-0.339005c-0.210999,-0.011002 -0.420013,-0.026993 -0.631012,-0.037994c-1.645996,-0.082001 -3.300995,-0.139008 -4.955994,-0.186996c-0.341003,-0.01001 -0.679993,-0.028 -1.020996,-0.036011c-1.96701,-0.048996 -3.937988,-0.07399 -5.916992,-0.07399c-1.871017,0 -3.736008,0.026993 -5.597015,0.069992c-0.520996,0.012009 -1.041,0.033005 -1.560989,0.048004c-1.383011,0.041992 -2.764008,0.091003 -4.141006,0.155991c-0.522003,0.025009 -1.042999,0.053009 -1.565002,0.081009c-1.466995,0.080002 -2.931992,0.169998 -4.391998,0.276001c-0.365997,0.026001 -0.731003,0.052002 -1.095993,0.080002c-39.980011,3.093002 -77.18399,16.215988 -109.12001,36.832001l0,-90.567017c4.503006,-1.641006 7.733002,-5.953003 7.733002,-11.016006c0,-6.453995 -5.263,-11.703995 -11.732994,-11.703995c-6.473,0 -11.737999,5.25 -11.737999,11.703995c0,5.064011 3.231995,9.376007 7.737999,11.017014l0,95.962997c-5.246002,3.697998 -10.340004,7.596985 -15.261002,11.699005c1.481003,3.768005 2.677002,9.61499 3.737,18.147003c1.581001,12.888977 5.055,13.237976 13.448997,14.082977c3.681,0.371002 7.854004,0.791016 12.445999,2.38501c3.108002,1.071991 6.054001,1.979004 8.902008,2.854004c17.207993,5.286987 30.800995,9.463989 27.01799,38.878998c-0.559998,4.355011 -0.738998,7.170013 -0.869995,9.225006c-0.399994,6.276001 -0.645004,7.350006 -6.634995,18.824005c-1.833008,3.511993 -22.938004,14.991974 -23.138,15.082001c-5.131012,2.366974 -8.16301,3.596985 -10.375,4.494995c-4.308006,1.748993 -5.466003,2.217987 -14.751007,8.242004c-13.251999,8.592987 -12.214996,25.92099 -11.596001,36.273987c0.229004,3.819 0.393005,6.56601 -0.167,8.570007l29.654007,0c1.695999,-1.468994 4.324997,-2.695007 8.328995,-2.404999c0.067001,0.005005 0.117996,0.006989 0.167999,0.006989c1.723999,0 4.052002,-2.708008 6.303009,-5.326996c3.941986,-4.585999 8.847992,-10.292999 16.926987,-10.292999c12.014008,0 20.12001,6.375 23.213013,18.018982l44.209,0c0.981995,-3.604004 2.141998,-6.906982 3.356995,-9.510986c7.742996,-16.411011 5.735992,-31.580994 4.270996,-42.65802c-0.925995,-6.998993 -1.656998,-12.526978 0.175003,-16.730988c0.544006,-1.238007 2.302002,-4.093994 6.955994,-4.093994c8.693008,0 25.900009,11.158997 26.802017,18.980988c0.905975,7.661011 0.391998,11.934998 -0.022003,15.369019c-0.626007,5.190002 -0.971008,8.050995 6.018982,21.91098c3.877014,7.688019 24.455017,13.417999 41.934021,15.489014c1.692993,0.20401 3.427979,0.630005 5.171997,1.242981l104.588989,0c-4.414001,-3.890991 -8.606995,-8.759979 -12.537994,-13.33197z"/>
  <path fill="#569ed8" id="svg_10" d="m165.751999,435.095001c-4.490997,0 -7.625,3.645996 -10.944,7.507996c-0.725998,0.843994 -1.457001,1.694 -2.209,2.511017l27.958008,0c-2.395004,-6.810028 -7.188004,-10.019012 -14.805008,-10.019012z"/>
 </g>
</svg>