<svg width="512" height="512" xmlns="http://www.w3.org/2000/svg">

 <g>
  <title>background</title>
  <rect fill="none" id="canvas_background" height="402" width="582" y="-1" x="-1"/>
 </g>
 <g>
  <title>Layer 1</title>
  <polygon fill="#754c54" id="svg_2" points="269.275,247.494 242.703,247.494 242.686,275.246 269.271,275.246   "/>
  <path fill="#724a52" id="svg_3" d="m242.636002,353.584991c0.224991,0.024994 0.449005,0.053986 0.673004,0.076996c0.213989,0.020996 0.429993,0.044006 0.643997,0.063995c0.746994,0.074005 1.496994,0.140015 2.248001,0.200012c0.269989,0.020996 0.539993,0.044006 0.80899,0.062988c0.706009,0.053009 1.414001,0.095001 2.122009,0.13501c0.298996,0.016998 0.598999,0.036011 0.897995,0.050995c0.712997,0.033997 1.427994,0.05899 2.143997,0.080994c0.283997,0.009003 0.56601,0.022003 0.850998,0.028015c0.988007,0.02298 1.980011,0.037994 2.975006,0.037994c0.996002,0 1.988007,-0.015015 2.979004,-0.037994c0.277985,-0.006012 0.557007,-0.02002 0.835999,-0.028015c0.721985,-0.020996 1.442993,-0.046997 2.161987,-0.082001c0.292023,-0.013977 0.582001,-0.03299 0.873016,-0.048981c0.718994,-0.040009 1.438995,-0.084015 2.154999,-0.137024c0.256989,-0.018982 0.513,-0.039978 0.768982,-0.059998c0.77002,-0.062988 1.537018,-0.129974 2.302002,-0.203979c0.194,-0.02002 0.390015,-0.040009 0.585022,-0.059998c0.201996,-0.021027 0.401978,-0.048004 0.604004,-0.070007l0.006989,-68.979004l-26.59201,0l-0.043991,68.970001z"/>
  <rect fill="#3f3f3a" id="svg_4" y="444.136" x="233.748" width="44.512" height="26.382"/>
  <path fill="#e8e82e" id="svg_5" d="m256,113.422997c-66.740997,0 -121.039001,54.034004 -121.039001,120.452003c0,58.683014 42.395996,107.690002 98.305008,118.30899l0.042999,-67.565979l-13.230011,0c-2.58699,0 -4.685989,-2.098022 -4.685989,-4.686005s2.098999,-4.686005 4.685989,-4.686005l13.236008,0l0.016998,-27.751999l-13.253006,0c-2.58699,0 -4.685989,-2.097 -4.685989,-4.684998c0,-2.588013 2.098999,-4.686005 4.685989,-4.686005l13.259003,0l0.018997,-28.718994l-34.036987,-25.407013c-2.074005,-1.548996 -2.5,-4.483994 -0.953003,-6.557999c1.547989,-2.072998 4.483994,-2.5 6.557999,-0.951996l35.919998,26.813004c1.186005,0.884995 1.882996,2.278 1.882004,3.757004l-0.019012,31.063995l26.565994,0l0.003021,-31.067001c0,-1.479004 0.697998,-2.871002 1.882996,-3.755005l35.919006,-26.813004c2.074005,-1.546997 5.009979,-1.121994 6.557983,0.952011s1.122009,5.009003 -0.951996,6.557999l-34.036011,25.408005l-0.002991,28.717987l13.281006,0c2.588013,0 4.686005,2.097 4.686005,4.686005c0,2.587997 -2.097992,4.684998 -4.686005,4.684998l-13.281006,0l-0.003998,27.751999l13.285004,0c2.588013,0 4.686005,2.097992 4.686005,4.686005s-2.097992,4.686005 -4.686005,4.686005l-13.285004,0l-0.006989,67.583984c55.959991,-10.578003 98.403992,-59.608002 98.403992,-118.325989c0.001007,-66.417999 -54.296997,-120.452003 -121.039001,-120.452003z"/>
  <path fill="#e2e234" id="svg_6" d="m256,86.610001c2.588013,0 4.686005,-2.098 4.686005,-4.685997l0,-35.756004c0,-2.587997 -2.097992,-4.686001 -4.686005,-4.686001c-2.587006,0 -4.686005,2.097 -4.686005,4.686001l0,35.756004c0,2.587997 2.098999,4.685997 4.686005,4.685997z"/>
  <path fill="#e2e234" id="svg_7" d="m329.984009,106.333c0.73999,0.429001 1.549011,0.633003 2.347015,0.633003c1.615997,0 3.187988,-0.836006 4.057983,-2.335007l17.963013,-30.961998c1.298981,-2.237999 0.536987,-5.104996 -1.701019,-6.403999c-2.235992,-1.296997 -5.10498,-0.536003 -6.403992,1.702003l-17.96402,30.962997c-1.298981,2.237999 -0.536987,5.105003 1.701019,6.403z"/>
  <path fill="#e5e537" id="svg_8" d="m388.22699,162.585007c0.790985,0 1.593994,-0.201004 2.329987,-0.623993l31.104004,-17.878006c2.243011,-1.289993 3.016998,-4.153992 1.727997,-6.397003c-1.289001,-2.243988 -4.151978,-3.016998 -6.395996,-1.727997l-31.104004,17.878006c-2.243988,1.289993 -3.017975,4.153992 -1.727997,6.397003c0.865021,1.50798 2.443024,2.35199 4.06601,2.35199z"/>
  <path fill="#e5e537" id="svg_9" d="m444.591003,229.188995l-35.919983,0c-2.58902,0 -4.686005,2.097 -4.686005,4.686005c0,2.587997 2.096985,4.686005 4.686005,4.686005l35.919983,0c2.587982,0 4.684998,-2.098007 4.684998,-4.686005c-0.001007,-2.587997 -2.097015,-4.686005 -4.684998,-4.686005z"/>
  <path fill="#e5e537" id="svg_10" d="m421.661987,323.665009l-31.104004,-17.880005c-2.246979,-1.289001 -5.108002,-0.515991 -6.397003,1.72702c-1.289978,2.243988 -0.516998,5.107971 1.72702,6.396973l31.104004,17.880005c0.735992,0.423004 1.538971,0.625 2.330994,0.625c1.621979,0 3.199005,-0.843994 4.065979,-2.35199c1.289032,-2.244019 0.515015,-5.108002 -1.72699,-6.397003z"/>
  <path fill="#e5e52d" id="svg_11" d="m121.450996,305.785004l-31.104996,17.880005c-2.244003,1.289001 -3.016998,4.152985 -1.728004,6.397003c0.867004,1.507996 2.444,2.35199 4.067001,2.35199c0.792,0 1.595001,-0.201996 2.331001,-0.625l31.105003,-17.880005c2.242996,-1.289001 3.015991,-4.152985 1.726997,-6.397003c-1.290001,-2.242004 -4.153,-3.015991 -6.397003,-1.72699z"/>
  <path fill="#e5e530" id="svg_12" d="m108.014,233.875c0,-2.587997 -2.097,-4.686005 -4.685997,-4.686005l-35.919006,0c-2.586998,0 -4.685997,2.097 -4.685997,4.686005c0,2.587997 2.098999,4.686005 4.685997,4.686005l35.919006,0c2.588997,0 4.685997,-2.098007 4.685997,-4.686005z"/>
  <path fill="#e2e231" id="svg_13" d="m126.121002,153.835999l-31.105003,-17.878006c-2.244995,-1.289993 -5.107002,-0.515991 -6.396996,1.728012c-1.290001,2.242996 -0.516006,5.106995 1.727997,6.396988l31.105003,17.878006c0.736,0.423004 1.538994,0.624008 2.329994,0.624008c1.623001,0 3.200005,-0.844009 4.067001,-2.352005c1.287994,-2.242996 0.514999,-5.106995 -1.727997,-6.397003z"/>
  <path fill="#e2e234" id="svg_14" d="m175.612,104.630997c0.869995,1.498001 2.442001,2.335007 4.057999,2.335007c0.798004,0 1.606003,-0.204002 2.346008,-0.633003c2.237991,-1.297997 3,-4.166 1.701996,-6.403999l-17.957001,-30.962997c-1.298004,-2.237007 -4.162994,-3 -6.403,-1.702003c-2.238007,1.299004 -3.001007,4.166 -1.703003,6.403999l17.957001,30.962997z"/>
  <path fill="#3f3f3a" id="svg_15" d="m327.183014,390.506989c2.587982,0 4.686005,-2.096985 4.686005,-4.686005c0,-2.587982 -2.098022,-4.686005 -4.686005,-4.686005l-30.966003,0l0,-23.73999c-0.401001,0.128998 -0.807007,0.239014 -1.209015,0.364014c-0.528992,0.165985 -1.062988,0.321991 -1.593994,0.47998c-1.246002,0.372009 -2.493988,0.726013 -3.748993,1.059021c-0.630005,0.168976 -1.263,0.333984 -1.895996,0.491974c-0.72699,0.181 -1.451996,0.362 -2.181,0.529999c-1.153015,0.268005 -2.312012,0.521027 -3.476013,0.756012c-0.641998,0.130005 -1.285004,0.248993 -1.929993,0.368988c-0.850983,0.160004 -1.704987,0.311005 -2.562988,0.45401c-0.563019,0.093018 -1.122009,0.19101 -1.686005,0.278015c-0.332001,0.050995 -0.666016,0.093994 -0.998016,0.142975c-0.075989,0.016022 -0.154999,0.019012 -0.230988,0.032013c-0.894012,0.127991 -1.787994,0.25 -2.687988,0.359985c-0.509003,0.062012 -1.02002,0.118011 -1.529022,0.175018c-1.181976,0.130981 -2.367004,0.246002 -3.557983,0.345001c-0.281006,0.02301 -0.562012,0.053009 -0.84201,0.074982c-1.451996,0.110016 -2.911987,0.190002 -4.376007,0.253021c-0.389984,0.016998 -0.777985,0.031006 -1.168976,0.044006c-1.51001,0.052979 -3.02301,0.087982 -4.545013,0.087982c-1.522995,0 -3.037994,-0.035004 -4.548996,-0.087982c-0.38501,-0.013 -0.770996,-0.027008 -1.156998,-0.044006c-1.470001,-0.063019 -2.935013,-0.143005 -4.391998,-0.253998c-0.263,-0.020996 -0.52301,-0.049011 -0.786011,-0.069c-1.218002,-0.101013 -2.431992,-0.220001 -3.639999,-0.354004c-0.487,-0.053009 -0.972992,-0.106995 -1.459,-0.166992c-0.951004,-0.115021 -1.895996,-0.244019 -2.839005,-0.380005c-0.070999,-0.013 -0.145996,-0.016022 -0.214996,-0.029999c-0.30899,-0.045013 -0.621002,-0.085999 -0.929001,-0.134003c-0.520996,-0.080017 -1.039993,-0.171021 -1.559998,-0.257019c-0.916,-0.152985 -1.828003,-0.313995 -2.737991,-0.483978c-0.601013,-0.113007 -1.201004,-0.223999 -1.799011,-0.344025c-1.196991,-0.243988 -2.388992,-0.502991 -3.574997,-0.777985c-0.682999,-0.15799 -1.362991,-0.328003 -2.044006,-0.497986c-0.701996,-0.175018 -1.400986,-0.356018 -2.098999,-0.54303c-1.135986,-0.303986 -2.265991,-0.623993 -3.393997,-0.95697c-0.625992,-0.186005 -1.251999,-0.370026 -1.873993,-0.564026c-0.388,-0.121979 -0.779999,-0.22699 -1.167999,-0.352997l0,23.740997l-31.625,0c-2.587006,0 -4.686005,2.098022 -4.686005,4.686005c0,2.58902 2.098999,4.686005 4.686005,4.686005l31.625,0l0,17.444l-31.625,0c-2.587006,0 -4.686005,2.097992 -4.686005,4.686005s2.098999,4.686005 4.686005,4.686005l31.625,0l0,17.441986l13.278,0l53.882996,0l13.270996,0l0,-17.441986l30.966003,0c2.588013,0 4.686005,-2.098022 4.686005,-4.686005s-2.097992,-4.686005 -4.686005,-4.686005l-30.966003,0l0,-17.444l30.971008,0z"/>
 </g>
</svg>