<svg id="SvgjsSvg1035" width="288" height="288" xmlns="http://www.w3.org/2000/svg" version="1.1" xmlns:xlink="http://www.w3.org/1999/xlink" xmlns:svgjs="http://svgjs.com/svgjs"><defs id="SvgjsDefs1036"></defs><g id="SvgjsG1037"><svg xmlns="http://www.w3.org/2000/svg" width="288" height="288" version="1.0" viewBox="0 0 1920 1908"><g transform="matrix(.1 0 0 -.1 0 1908)" fill="#4ce83f" class="color000 svgShape"><path d="M8550 19070 c-504 -23 -848 -74 -1375 -206 -862 -216 -1498 -467-2135 -841 -185 -109 -593 -380 -645 -429 -37 -34 -38 -37 -20 -44 34 -12 269
45 490 120 302 101 532 210 573 270 33 50 61 61 190 76 139 16 186 29 339 95
239 103 732 270 792 269 9 -1 -59 -39 -150 -85 -130 -66 -176 -95 -209 -131
l-43 -46 6 -64 c6 -81 -6 -98 -88 -113 -33 -6 -84 -26 -113 -44 -123 -73 -193
-220 -127 -263 35 -23 88 -13 185 36 44 22 88 40 99 40 28 0 43 -33 44 -101 3
-102 -40 -121 -248 -112 -198 9 -496 -23 -852 -92 -237 -46 -406 -71 -593 -89
-172 -17 -241 -36 -380 -106 -272 -136 -510 -351 -571 -514 -41 -109 -135
-214 -249 -278 -101 -57 -169 -110 -208 -162 -46 -60 -57 -95 -38 -121 13 -17
20 -18 77 -8 35 6 66 9 68 7 10 -9 -45 -71 -193 -218 -175 -175 -256 -280
-294 -385 -25 -71 -89 -166 -149 -222 -21 -20 -81 -69 -133 -109 -52 -39 -110
-86 -130 -103 -80 -73 -103 -127 -54 -127 58 0 194 74 469 256 161 106 296
183 394 223 19 8 52 38 78 71 77 100 296 239 533 339 146 61 221 83 290 85 70
1 104 -20 133 -82 20 -44 22 -63 22 -262 0 -184 3 -220 17 -246 20 -36 47 -46
80 -30 28 14 58 70 58 109 0 36 26 87 45 87 8 0 26 -10 40 -22 39 -34 48 -108
28 -232 -20 -126 -13 -164 38 -188 59 -28 64 -39 63 -157 0 -130 -29 -251
-116 -489 -84 -233 -99 -300 -105 -478 -6 -175 10 -303 57 -446 52 -156 105
-244 262 -439 90 -111 146 -223 157 -315 10 -80 29 -124 76 -174 49 -52 60
-93 46 -171 -23 -134 -10 -173 74 -220 30 -17 66 -44 79 -60 23 -27 46 -85 46
-118 0 -57 148 -240 248 -306 57 -37 72 -25 72 59 0 71 -34 152 -78 187 -51
40 -65 98 -41 182 14 51 4 74 -42 97 -53 28 -124 131 -215 315 -56 112 -68
142 -47 119 132 -146 428 -499 525 -627 144 -188 251 -311 377 -429 90 -84
170 -136 191 -123 5 3 10 2 10 -4 0 -5 -30 -36 -66 -68 -134 -119 -150 -209
-45 -262 44 -23 119 -37 264 -50 67 -6 117 -15 132 -25 22 -14 24 -21 18 -66
-6 -51 -6 -51 45 -100 124 -119 404 -212 730 -240 295 -26 429 -71 577 -192
86 -70 275 -160 425 -202 243 -68 394 -150 530 -288 74 -75 98 -115 114 -190
19 -91 29 -105 85 -122 66 -19 77 -26 157 -92 120 -99 299 -167 472 -181 58
-4 86 -2 115 10 33 14 37 20 37 52 0 48 13 70 49 85 26 10 36 9 68 -6 37 -19
49 -36 75 -104 7 -19 27 -51 45 -71 66 -73 97 -206 98 -419 0 -144 0 -146 -33
-212 -26 -53 -61 -96 -170 -205 -176 -177 -254 -294 -325 -488 -62 -170 -81
-288 -75 -467 6 -171 27 -231 135 -399 208 -321 432 -772 540 -1087 32 -94 44
-114 92 -166 69 -72 139 -122 301 -217 218 -127 330 -231 399 -373 77 -160 83
-267 28 -586 -63 -360 -110 -725 -122 -945 -8 -138 -33 -277 -85 -475 -68
-256 -127 -531 -165 -759 -56 -338 -94 -460 -164 -527 -45 -44 -47 -64 -7 -64
42 0 88 -13 93 -26 2 -7 -9 -32 -25 -56 -41 -61 -55 -111 -49 -178 12 -136
144 -297 314 -384 173 -87 477 -117 564 -55 49 35 40 54 -87 175 -102 98 -116
115 -110 137 3 14 58 73 125 136 110 103 151 156 151 194 0 9 -11 28 -25 43
-33 35 -32 50 7 110 104 159 745 694 832 694 63 0 174 112 229 230 25 54 31
80 33 150 1 47 3 88 3 92 1 4 9 14 18 23 14 14 29 16 97 10 100 -8 168 11 282
79 177 105 449 355 673 616 150 176 240 261 419 395 159 120 213 179 237 261
24 78 91 133 241 196 113 46 178 87 269 166 218 189 405 484 476 751 44 166
185 398 424 696 206 257 296 403 324 526 15 65 14 234 -2 272 -22 52 -40 61
-91 48 -35 -8 -53 -8 -92 5 -58 17 -85 36 -189 126 -92 80 -156 113 -261 133
-136 26 -292 94 -695 302 -376 195 -450 218 -542 169 l-47 -26 50 66 c99 129
113 188 59 240 -42 39 -69 103 -80 186 -11 87 -45 152 -118 225 -111 111 -243
182 -432 233 -245 67 -477 204 -694 412 -105 100 -171 190 -181 246 -10 65
-24 98 -49 122 -23 21 -37 24 -179 30 -121 5 -161 11 -181 24 -36 24 -41 42
-21 82 9 19 16 39 16 44 0 17 -33 11 -67 -12 -53 -37 -60 -68 -38 -160 6 -23
4 -28 -18 -34 -38 -9 -222 33 -293 66 -71 34 -89 62 -71 109 15 40 5 47 -40
32 -54 -18 -151 5 -283 64 -81 37 -118 48 -160 49 -47 1 -55 -2 -58 -19 -10
-53 -83 -85 -112 -49 -11 13 -10 23 8 60 12 24 22 49 22 54 0 20 -68 9 -185
-29 -66 -22 -162 -51 -213 -65 -137 -38 -234 -99 -352 -221 -91 -94 -135 -125
-179 -125 -22 0 -77 20 -146 52 -157 75 -201 76 -353 14 -89 -37 -123 -46
-169 -46 -107 1 -178 54 -235 176 -46 98 -67 224 -74 434 -9 283 -32 353 -131
401 -64 31 -236 37 -468 15 -173 -16 -233 -12 -227 15 2 8 20 38 40 68 36 52
37 55 37 150 1 94 2 98 54 216 97 220 104 238 109 307 9 132 -32 151 -267 118
-86 -12 -166 -29 -179 -37 -38 -23 -80 -91 -107 -172 -14 -43 -37 -93 -50
-111 -67 -90 -200 -140 -396 -148 -114 -4 -117 -4 -182 27 -42 20 -81 49 -109
80 -52 58 -123 185 -171 306 -127 320 -97 571 95 780 151 164 377 311 585 381
72 24 87 26 184 20 96 -6 108 -4 131 14 17 13 27 33 31 62 8 61 48 94 123 104
105 13 407 -31 530 -77 34 -13 77 -41 114 -76 51 -47 71 -76 131 -197 107
-214 176 -307 268 -367 59 -38 102 -38 131 -1 20 24 22 35 17 98 -6 83 -52
229 -99 311 -18 32 -63 88 -99 124 -56 56 -69 75 -77 116 -20 92 15 231 84
336 19 28 111 126 204 217 191 187 215 222 213 315 -1 72 -17 111 -107 259
-36 60 -66 113 -66 118 0 4 37 -19 82 -53 106 -78 129 -78 140 1 10 71 69 189
157 313 89 126 138 226 155 316 8 39 19 78 26 86 27 32 85 37 244 21 258 -27
348 -19 367 32 22 58 76 93 175 112 118 23 174 77 174 166 0 102 140 169 271
130 58 -16 95 -48 123 -103 28 -55 39 -44 51 55 4 28 10 52 14 52 4 0 31 -34
60 -75 60 -87 80 -95 83 -32 3 103 -17 162 -97 282 -52 78 -142 177 -177 196
-22 12 -22 8 -1 -52 23 -63 11 -78 -41 -54 -56 27 -136 114 -238 258 -102 145
-266 319 -339 361 -26 15 -64 27 -85 28 -83 2 -172 69 -438 325 -207 202 -298
273 -347 273 -34 0 -65 -30 -73 -73 -3 -17 -13 -41 -21 -54 -32 -48 -85 -27
-341 134 -185 116 -291 172 -389 203 -59 18 -92 22 -211 21 -78 -1 -148 1
-156 4 -10 4 -13 16 -10 36 4 26 -2 37 -48 77 -136 123 -148 137 -171 214 -18
59 -23 99 -23 203 -1 184 18 222 89 175 32 -21 94 -26 125 -10 27 15 42 -10
49 -87 6 -52 12 -70 30 -84 29 -24 41 -24 141 0 90 22 110 19 110 -13 -1 -63
-74 -153 -166 -206 -82 -46 -100 -84 -68 -140 25 -42 65 -60 177 -80 134 -24
239 -63 460 -172 207 -103 273 -128 331 -128 54 0 83 21 112 84 30 64 31 123
3 201 -15 43 -22 87 -23 155 -2 82 -6 102 -30 150 -64 124 -227 322 -394 480
-126 119 -192 166 -264 191 l-53 18 50 21 c63 27 227 70 269 70 60 0 130 -29
191 -78 78 -64 159 -108 211 -117 48 -7 90 -44 130 -113 15 -26 34 -55 43 -66
22 -26 79 -52 127 -60 69 -12 82 -32 76 -115 -6 -83 13 -128 83 -201 71 -74
89 -128 63 -185 -15 -34 2 -47 41 -32 15 5 39 7 54 3 50 -12 203 -127 357
-267 338 -308 702 -533 815 -505 22 6 25 11 25 54 0 58 -19 139 -70 302 -69
219 -84 354 -54 498 27 135 84 204 198 242 37 12 73 28 81 37 25 25 17 65 -32
148 -55 95 -136 180 -181 190 -43 9 -189 108 -395 268 -338 261 -624 438 -901
557 -152 65 -214 81 -302 78 -82 -3 -115 13 -141 67 -13 28 -14 37 -3 49 30
37 84 41 490 40 512 0 1079 -31 1164 -64 45 -17 108 -11 164 15 47 22 53 28
50 51 -2 15 -14 35 -28 45 -88 64 -494 124 -1115 165 -276 18 -1804 28 -2125
14z m-86 -522 c14 -6 52 -44 85 -84 94 -114 184 -150 448 -179 77 -8 172 -21
210 -29 183 -40 331 -122 251 -141 -13 -3 -64 -9 -113 -14 -100 -10 -160 -30
-220 -74 -61 -44 -115 -36 -241 36 -152 86 -168 91 -322 92 -126 0 -135 1
-152 22 -40 49 -35 319 6 364 20 22 17 22 48 7z m-1217 -448 c16 -31 17 -122
2 -137 -6 -6 -19 -9 -28 -6 -34 13 -151 95 -151 108 0 17 23 35 67 51 55 20
95 14 110 -16z m-652 -64 c94 -41 187 -57 264 -45 30 5 56 7 58 5 7 -7 -102
-79 -154 -103 -78 -36 -119 -16 -219 105 -53 65 -66 89 -41 79 6 -3 48 -22 92
-41z m1348 -3 c-26 -64 -12 -156 43 -279 25 -58 44 -107 41 -111 -16 -16 -176
144 -223 224 -35 58 -31 66 85 161 29 23 57 42 61 42 5 0 2 -17 -7 -37z m-556
-249 c75 -20 150 -42 165 -50 47 -24 24 -37 -52 -30 -145 15 -303 66 -341 112
-13 16 -11 17 39 10 29 -4 114 -23 189 -42z m885 -111 c25 -22 23 -73 -4 -113
-36 -52 -55 -60 -80 -30 -15 19 -19 34 -15 67 9 80 55 116 99 76z m-1727 -667
c19 -13 11 -22 -120 -155 -77 -77 -143 -141 -148 -141 -4 0 -1 15 7 34 53 126
10 205 -100 185 -55 -10 -87 -27 -153 -79 -34 -27 -49 -35 -42 -22 30 56 181
148 291 176 74 20 240 21 265 2z m1810 -91 c89 -37 163 -49 228 -38 72 13 93
3 107 -46 14 -53 48 -78 118 -87 46 -6 63 -13 89 -39 36 -36 40 -59 21 -128
-14 -55 -3 -72 98 -156 108 -89 159 -195 170 -350 11 -157 48 -200 171 -202
32 -1 71 -4 88 -8 l29 -6 -28 -22 c-45 -36 -128 -71 -182 -78 -40 -6 -61 -3
-103 15 -71 31 -80 21 -57 -62 17 -60 17 -63 -1 -75 -20 -15 -14 -16 -238 34
-137 31 -179 36 -295 37 -126 1 -139 -1 -191 -25 -92 -43 -91 -60 11 -139 81
-63 118 -106 126 -149 5 -23 2 -32 -15 -40 -17 -9 -22 -8 -31 8 -5 11 -10 33
-10 48 0 16 -6 38 -14 49 -14 19 -15 19 -46 1 -39 -23 -68 -17 -139 29 -29 20
-68 38 -86 41 -29 5 -39 0 -74 -36 -46 -47 -65 -50 -112 -18 -74 49 -125 184
-99 261 25 76 145 144 237 133 55 -6 79 -27 87 -76 7 -46 32 -70 79 -78 30 -4
38 -2 51 20 13 19 14 30 6 51 -18 48 -12 76 24 112 19 19 41 34 50 34 15 0 15
-3 1 -30 -8 -16 -15 -43 -15 -60 0 -24 6 -33 28 -41 53 -21 174 10 211 55 23
28 9 78 -28 103 -78 53 -171 62 -379 37 -78 -9 -153 31 -289 154 -183 166
-246 215 -297 228 -37 9 -40 18 -21 74 21 64 66 104 107 95 54 -12 113 34 337
267 84 87 145 128 191 128 14 0 52 -12 85 -25z m-1585 -184 c0 -5 -22 -25 -49
-45 -70 -51 -80 -89 -35 -125 46 -36 88 -28 147 28 60 56 86 71 120 71 40 0
48 -20 30 -71 -14 -39 -14 -48 -2 -74 8 -16 26 -36 40 -44 40 -22 75 1 124 84
68 117 144 137 181 48 32 -75 0 -145 -74 -166 -38 -12 -47 -18 -47 -37 0 -31
25 -44 67 -36 26 5 51 22 89 63 30 31 66 69 81 85 36 38 63 38 53 1 -13 -55
-72 -131 -217 -279 -88 -90 -149 -161 -154 -178 -9 -38 6 -66 60 -106 25 -19
44 -39 42 -45 -5 -18 -144 -29 -228 -18 -44 6 -82 13 -85 17 -3 3 15 26 41 50
40 37 47 48 41 68 -9 30 -50 72 -104 109 -61 40 -85 38 -115 -10 -14 -22 -34
-42 -45 -46 -41 -13 -122 15 -364 125 -58 26 -73 11 146 139 86 51 157 96 157
100 0 4 -51 -3 -112 -16 -173 -35 -206 -30 -193 26 8 40 -6 58 -51 67 -19 3
-34 10 -34 14 0 39 258 176 375 200 57 11 115 12 115 1z m3230 -476 c0 -39
-125 -165 -164 -165 -29 0 -31 6 -15 47 21 58 102 123 152 123 15 0 27 -2 27
-5z m-559 -648 c40 -27 48 -64 22 -95 -18 -21 -30 -25 -70 -23 -30 1 -103 68
-103 94 0 49 92 64 151 24z m1094 -147 c89 -45 133 -75 123 -85 -12 -12 -332
-9 -356 4 -28 15 -28 39 2 72 61 70 108 71 231 9z m393 -103 c21 -25 61 -29
119 -12 31 9 67 14 80 10 21 -5 24 -10 18 -33 -10 -40 -75 -177 -140 -292
l-57 -102 -25 54 c-75 159 -95 222 -96 298 -1 78 5 98 52 160 l26 35 5 -51 c3
-28 11 -58 18 -67z m-2582 -53 c61 -32 223 -145 247 -171 17 -20 17 -20 -29
-27 -109 -15 -515 3 -555 24 -21 12 -20 13 22 57 24 24 77 67 117 94 87 58
124 62 198 23z" fill="#4ce83f" class="color000 svgShape"></path><path d="M7925 16260c-25-41 187-205 294-226 74-15 108 62 56 125-30 35-109 76-186 96-62 17-155 20-164 5zM9100 16083c-23-9-60-45-76-75-18-35-18-112 0-127 24-20 45-1 82 74 45 92 43 146-6 128zM6830 16327c0-57 106-154 181-164 73-10 93 41 37 96-43 42-143 91-185 91-28 0-33-4-33-23zM12545 16945c-125-27-218-76-201-104 4-6 29-13 56-17 64-8 77-23 62-72-16-52-5-58 76-42 96 18 163 7 264-42 187-90 354-102 438-32 65 55 18 131-128 207-194 101-402 139-567 102zM2370 15786c-101-29-196-98-235-170-23-43-15-54 28-38 54 19 95 15 123-13 38-38 63-48 106-41 57 9 112 40 168 94 50 49 70 94 53 121-31 49-154 73-243 47zM16910 15738c0-18 7-55 15-82 8-27 15-58 15-69 0-22-14-21-123 9-59 16-69 17-82 3-12-11-13-22-5-49 6-19 10-52 10-73 0-32-7-45-37-73-90-81-91-83-98-137-12-97 35-221 95-252 80-42 161 6 201 120 13 35 25 63 26 61 2-2 10-72 18-157 7-85 19-171 25-192 11-38 54-87 153-176 27-23 47-44 45-47-2-2-43 8-91 21-85 23-117 24-117 3 0-19 59-111 155-243 104-142 209-339 224-420 11-58 2-114-20-128-12-7-55 8-173 63-164 76-225 91-275 70-52-21-64-63-72-266-8-191-15-257-55-499-13-82-24-172-24-201 0-75 14-84 128-81 87 2 93 1 118-25 22-21 30-43 40-109 8-45 18-87 23-92 13-13 92 25 163 79 66 51 66 48 5-33-22-29-45-70-52-90-12-33-11-40 3-56 15-16 14-20-3-50-10-18-42-61-71-97-67-85-84-119-84-175 0-42-5-51-50-99-101-106-343-256-414-256-56 0-76-25-97-123-21-102-70-228-144-377-98-195-145-396-144-605 1-114-10-165-35-165-42 0-57-102-63-445-6-322 3-445 37-522 16-36 24-43 46-43 65 0 133-80 226-265 79-156 145-253 234-342 169-169 323-220 476-158 90 37 175 48 255 34 119-21 222 4 334 81 140 96 249 125 297 80 22-20 25-31 37-102 10-65 91-108 204-108 24 0 48-8 65-21 23-18 26-28 26-78 0-32-7-107-16-167-17-123-20-369-4-517 5-52 26-175 46-273 41-207 52-331 35-401-7-26-34-95-61-153-98-211-153-528-225-1295-40-437-86-770-125-913-43-157-14-189 70-74 27 37 98 155 157 261 110 198 222 362 288 419 20 18 62 45 94 62 72 36 127 97 174 194 91 186 137 403 152 721 11 222 33 364 130 845 142 707 192 1153 202 1811 6 415-4 658-38 959-26 222-107 765-160 1065-22 126-54 308-71 404-19 115-37 190-53 221-28 56-96 120-164 154-93 47-103 34-67-86 29-94 30-98 17-98-26 0-351 540-351 584 0 7 7 19 15 26 37 31 142-29 275-156 100-95 126-114 157-114 21 0 23 5 23 51 0 88-52 249-198 614-260 650-614 1376-731 1502-11 12-29 24-40 28-27 8-65 69-106 171-19 49-58 129-86 179-159 279-433 645-484 645-40 0 1-104 135-340 114-200 139-274 120-347-10-43-66-163-75-163-2 0-4 26-4 58 1 109-39 225-163 477-46 94-97 209-113 255-26 76-29 96-27 193 2 120-10 161-54 177-39 15-44 12-44-22zm947-2267c84-52 246-315 339-550 42-106 80-252 71-274-19-50-47 11-47 103 0 47-5 73-15 83-21 21-88 34-250 47-260 21-304 28-351 55-24 14-52 38-61 52-41 62-5 214 81 341 50 75 129 147 171 155 11 2 22 5 25 6 3 0 19-8 37-18zm639-791c37-49 42-81 19-100-47-39-147 98-121 165 5 15 9 14 37-2 18-10 47-38 65-63zM2233 14920c-32-13-55-54-51-92 3-30 6-33 40-36 29-2 43 3 72 29 49 42 62 67 44 84-18 18-78 27-105 15zM1452 14555c-38-32-63-95-64-159 0-40 4-54 22-68 29-23 57-16 91 23 50 57 66 172 29 209-26 26-42 25-78-5zM1770 14478c-18-13-42-35-53-50-25-33-12-54 39-64 64-12 114 28 114 89 0 50-46 61-100 25z" fill="#4ce83f" class="color000 svgShape"></path><path d="M17210 14102c-30-9-100-74-100-91 0-36 60-57 113-39 75 27 62 154-13 130zM1045 13899c-52-48-129-178-205-349-171-379-330-851-330-979 0-74-26-148-71-195-69-76-108-188-179-510-97-445-183-1068-222-1606-17-244-17-608 1-688 19-84 47-126 88-130 71-7 79 48 93 673 6 271 16 475 24 530 28 183 63 277 117 318 29 21 51 23 122 12 39-6 51-5 69 11 31 28 48 76 48 136 0 81-17 124-70 183-57 63-74 124-85 300-16 258 47 661 115 743 45 54 97-7 121-142 7-37 20-78 29-89l17-21 25 25c52 52 176 289 227 432 89 254 123 587 67 672-17 26-57 42-77 30-27-17-52-104-65-220-14-138-48-251-99-335-49-78-99-135-113-126-26 16-9 163 34 301 57 178 144 329 268 466 126 138 147 206 110 355-20 76-12 95 31 76 14-7 35-12 47-12 18 0 20 5 16 38-3 20-16 60-29 87-33 69-61 72-124 14zM16971 12594c-43-55-17-123 42-109 26 7 107 77 107 93 0 25-33 42-80 42-41 0-52-4-69-26zM9276 11789c-100-24-266-138-266-183 0-19 27-45 57-57 36-13 164-11 193 4 19 10 25 20 24 43-2 42 25 56 112 62 53 3 78 0 103-13 35-17 35-20 10-82-17-42-7-50 39-33 76 27 184 5 332-70 136-69 245-102 350-107 84-5 98-3 119 14 20 16 22 23 12 41-35 65-329 206-683 326-183 63-301 79-402 55zM10917 11229c-9-5-33-35-52-65-47-73-85-90-160-73-47 10-57 10-80-5-21-14-26-24-23-49 7-72 101-82 464-47 115 11 253 24 306 29 53 5 106 14 117 20 55 30 42 83-29 119-39 19-59 22-175 22-129 0-189 10-267 44-43 18-75 20-101 5zM10155 11092c-38-24-95-88-95-108 0-25 51-36 163-32 82 2 110 7 117 18 20 32-65 124-125 135-20 4-40 0-60-13zM11755 11098c-36-20-105-92-105-110 0-28 41-38 146-38 103 0 134 9 134 40 0 24-70 97-106 110-32 12-44 12-69-2zM587 10581c-39-47-51-117-44-260 10-190 58-377 113-436 21-23 30-26 58-21 59 11 66-15 52-179-9-104 0-140 40-155 41-16 91 8 156 73 71 72 95 129 78 184-15 46-31 68-147 201-90 102-169 232-192 317-7 22-16 91-21 153-6 62-15 122-20 133-15 28-44 24-73-10zM611 9713c-36-43-86-158-96-221-19-119 73-142 130-32 37 71 43 276 9 287-7 2-26-13-43-34zM1012 9562c-12-12-22-41-26-76-9-65-44-116-82-116-52 0-50-63 6-168 37-70 111-149 147-158 37-10 70 27 84 94 18 88 7 284-20 354-23 60-33 72-68 82-15 5-28 1-41-12zM14 9305c-15-23-16-44-11-168 11-245 77-752 123-937 29-121 59-184 91-188 46-7 59 76 33 212-24 131-42 249-85 586-60 461-96 579-151 495zM549 9199c-49-49-157-326-194-495-47-213-51-471-10-594 21-62 63-100 113-100 20-1 57-5 82-10 36-7 49-5 63 7 28 26 63 111 88 216 12 53 26 97 30 97 4 0 10-57 13-127 9-181 25-382 35-423 5-19 12-47 15-62 16-72 72-77 132-13 23 25 46 45 53 45 6 0 24-27 41-60 33-65 44-73 54-37 17 64-5 170-59 286-41 85-51 135-36 174 18 46 51 36 111-33 29-33 56-57 61-54 5 3 9 26 9 52 0 38-6 55-31 85-36 44-116 92-219 133l-75 29 105 6c128 8 190 32 214 84 15 31 15 38 2 69-20 48-48 54-198 42-141-11-191 9-243 99-35 59-52 140-69 325-25 255-41 305-87 259zM4480 9115c-35-42 45-131 195-215 113-64 191-141 200-199 11-68 15-78 36-104 29-38 79-37 109 1 19 23 22 36 18 97-6 84-29 134-90 191-96 92-360 244-422 244-18 0-39-7-46-15zM1321 8586c-39-41-62-138-62-258 0-142 26-291 55-310 27-18 45-7 58 35 18 60 18 503 0 535-16 28-23 28-51-2z" fill="#4ce83f" class="color000 svgShape"></path><path d="M1549 8283c-40-43-48-64-64-173-7-56-20-109-27-117-21-25-74-44-154-53-84-9-124-29-124-64 0-57 109-99 260-99 109-1 156 11 167 39 3 10 2 44-4 78-9 48-8 66 3 82 17 28 60 38 96 23 34-14 42-40 30-94-19-89 28-149 186-235 221-120 402-270 446-367 23-52 17-70-28-78-48-10-78-44-74-86 2-28 10-37 45-55 24-12 73-24 115-28 90-9 142-36 155-80 19-70 174-102 270-55 35 17 45 28 53 59 12 44 33 69 58 71 103 7 184-39 284-159 123-147 301-264 408-266 44-1 55 2 58 16 8 38-48 116-180 254-145 152-190 219-192 287-1 31 5 44 27 63 34 29 82 31 171 8 123-32 222 1 325 112 158 168 146 334-24 334-54 0-66-18-41-60 41-70-1-137-123-199-110-57-238-68-359-31-75 22-119 49-232 145-94 80-251 178-442 275-317 162-404 177-526 90-66-48-103-51-153-15-60 45-92 105-54 105 10 0 15 10 15 29 0 34-46 99-103 145-33 27-46 30-102 31-35 0-67 3-71 7-4 4-10 25-13 45-8 50-44 57-82 16zM8773 8024c-18-9-41-34-54-59-21-39-22-46-9-69 26-50 142-58 190-14 18 17 21 28 17 61-10 74-80 114-144 81zM352 7901c-66-23-90-44-98-89-22-115 78-244 321-417 160-114 211-159 281-247 59-74 80-82 115-45 30 32 77 116 89 159 21 75-12 104-178 153-63 19-104 38-130 60-36 32-37 34-24 67 13 38 16 68 5 68-4 0-21-5-39-12-43-15-106 8-168 64-91 79-135 165-110 213 13 26 11 45-4 45-4-1-31-9-60-19z" fill="#4ce83f" class="color000 svgShape"></path><path d="M1897 7522c-37-41 0-184 56-214 54-28 90 128 47 200-16 26-26 32-53 32-20 0-41-7-50-18zM4131 7371c-36-23 26-171 97-229 71-58 137-82 226-82 81 0 106 6 106 24 0 17-61 73-168 155-143 108-229 151-261 132zM1715 7350c-31-13-95-76-95-93 0-23 32-37 84-37 36 0 48 5 65 26 27 35 28 90 2 104-23 12-29 12-56 0zM1263 7329c-47-23-106-78-134-123-27-44-25-110 3-130 41-29 173-16 182 16 2 7 18 61 36 119 18 59 30 114 27 123-9 23-63 21-114-5zM4750 7032c-8-4-35-20-59-37-39-26-53-30-110-30-36 1-87 5-113 9-47 9-48 8-48-17 0-60 78-107 178-107 56 0 263 37 275 49 13 13-16 81-49 116-23 25-45 30-74 17zM1721 6869c-24-26-48-94-56-164-15-123-24-130-186-130-145 0-160-9-177-111-12-74-23-91-70-111-44-18-54-49-40-116 11-51 10-57-16-101-21-36-48-61-110-100-48-31-87-64-94-80-34-76 5-202 189-603 337-732 424-849 684-923 39-11 87-20 109-20l39 0-6 37c-4 21-2 42 5 50 27 33 155 4 277-63 141-78 256-182 406-368 121-151 204-236 231-236 26 0 195-170 407-410 215-243 419-454 459-476 19-10 34-11 52-5 38 15 41 45 11 107-26 53-71 98-195 197-30 24-55 50-55 57 0 10 37 25 110 47 167 49 227 102 241 211 9 79 47 180 105 280 70 123 84 193 83 422 0 151-4 203-21 280-37 165-68 228-184 375-21 28-46 70-55 95-40 117-92 189-285 400-192 210-264 330-374 617-49 128-115 243-139 243-36 0-82 89-122 235-48 173-84 235-136 235-57 0-70-86-55-355 5-84 4-145-1-153-7-11-41 2-160 62-83 42-178 96-211 121-61 45-111 106-111 137 0 51-105 119-245 158-146 41-229 93-237 150-4 33-40 38-67 9zM4914 6821c-67-41-123-135-110-186 8-33 45-41 122-26 75 15 102 9 110-27 8-40 18-55 46-71 74-43 78 62 8 204-61 123-105 149-176 106zM5716 5934c-27-27-21-119 13-189 45-97 114-139 165-102 44 33-3 182-85 269-38 41-68 48-93 22zM7413 5630c-83-26-25-141 63-127 79 13 134 90 84 117-30 16-110 21-147 10zM7138 5530c-23-14-41-75-34-115 18-92 144-137 207-74 39 39 13 123-52 172-30 22-97 32-121 17zM5370 5225c-6-8-12-30-12-50 0-88 164-262 239-253 42 5 43 51 2 129-73 136-188 224-229 174zM5491 4111c-21-38-23-106-7-214 23-154 21-192-9-222-17-18-35-25-64-25-76 0-62-28 55-109l49-35-86-13c-98-14-192-46-334-112-193-91-384-216-408-268-10-23-8-28 25-58 48-44 106-53 195-31 96 23 188 72 368 192 88 59 198 125 245 146 92 43 410 254 410 272 0 6-48 59-106 116-124 123-199 223-220 296-17 59-28 71-72 80-24 5-32 2-41-15zM11962 1660c-101-21-164-87-141-147 26-68 92-103 156-82 46 15 136 98 170 157 22 37 24 46 12 57-18 18-139 27-197 15zM13970 1103c-53-9-130-38-247-95-181-87-299-119-493-133-149-11-280-41-485-110-370-125-742-186-1150-189-229-1-322 11-378 48-96 65-181 66-362 4-69-23-125-45-125-49 0-3 79-61 175-129 96-68 175-125 175-128 0-3-64-2-142 2-169 8-296-4-425-40-124-35-127-34-133 46-7 91-15 93-212 49-142-32-165-34-323-33-192 0-219 6-495 103-181 64-249 69-303 21-84-73-185-76-657-18-112 14-232 22-335 22-141 0-178-4-311-32-272-56-353-115-227-162 207-77 941-205 1473-256 227-22 981-30 1290-15 866 44 1698 172 2245 345 557 176 1412 539 1552 660 35 30 27 69-18 85-32 11-44 12-89 4z" fill="#4ce83f" class="color000 svgShape"></path></g></svg></g></svg>