<?xml version="1.0" encoding="iso-8859-1"?>
<!-- Generator: Adobe Illustrator 19.0.0, SVG Export Plug-In . SVG Version: 6.00 Build 0)  -->
<svg version="1.1" id="Capa_1" xmlns="http://www.w3.org/2000/svg" xmlns:xlink="http://www.w3.org/1999/xlink" x="0px" y="0px"
	 viewBox="0 0 512 512" style="enable-background:new 0 0 512 512;" xml:space="preserve">
<g>
	<path style="fill:#414B82;" d="M276.534,512c-13.476,0-24.401-10.925-24.401-24.401V292.562c0-13.476,10.925-24.401,24.401-24.401
		c13.476,0,24.401,10.925,24.401,24.401v195.037C300.934,501.075,290.009,512,276.534,512z"/>
	<path style="fill:#414B82;" d="M217.63,512c-13.476,0-24.401-10.925-24.401-24.401V292.562c0-13.476,10.925-24.401,24.401-24.401
		s24.401,10.925,24.401,24.401v195.037C242.031,501.075,231.106,512,217.63,512z"/>
</g>
<path style="fill:#252D5C;" d="M457.426,185.601c0.399-11.227-8.38-20.652-19.607-21.051l-73.202-2.6l-28.286-44.517
	c-7.788-12.258-20.949-19.701-35.397-20.132V97.26c-9.571,0-22.646,0-41.691,0h-9.896h-0.001c-18.661,0-40.385,0-56.116,0v0.07
	c-15.226,0.715-28.989,9.308-36.262,22.826l-23.371,43.45l-80.264-6.027c-11.203-0.843-20.967,7.56-21.808,18.762
	c-0.84,11.203,7.56,20.967,18.762,21.808l93.441,7.016c8.059,0.6,15.649-3.604,19.438-10.649
	c31.645-58.748,29.561-55.146,30.064-55.682v153.728c29.183,0,90.508,0,107.705,0V138.276c1.257,0.669-0.952-1.928,35.088,54.533
	c3.595,5.658,9.749,9.182,16.448,9.42c89.031,3.158,83.948,2.994,84.64,2.994C448.012,205.222,457.036,196.583,457.426,185.601z"/>
<path style="fill:#FFFFFF;" d="M63.241,158.323l-9.909-0.744c-11.203-0.843-20.967,7.56-21.808,18.762
	c-0.84,11.203,7.56,20.967,18.762,21.808l10.415,0.782L63.241,158.323z"/>
<path style="fill:#BA6746;" d="M53.332,157.578c-11.203-0.843-20.967,7.56-21.808,18.762c-0.84,11.203,7.56,20.967,18.762,21.808
	L53.332,157.578z"/>
<path style="fill:#1B224A;" d="M457.426,185.601c0.399-11.227-8.38-20.652-19.607-21.051l-73.202-2.6l-28.286-44.517
	c-7.788-12.258-20.949-19.701-35.397-20.132V97.26c-10.963,0-42.75,0-53.902,0l0.05,195.304c11.073,0,42.884,0,53.852,0V138.276
	c1.257,0.669-0.952-1.928,35.088,54.533c3.595,5.658,9.749,9.182,16.448,9.42c89.031,3.158,83.948,2.994,84.64,2.994
	C448.012,205.222,457.036,196.583,457.426,185.601z"/>
<path style="fill:#FFFFFF;" d="M437.819,164.55l-10.892-0.387l-1.237,40.668c12.318,0.438,11.05,0.392,11.42,0.392
	c10.901,0,19.926-8.639,20.316-19.621C457.825,174.374,449.046,164.949,437.819,164.55z"/>
<g>
	<path style="fill:#BA6746;" d="M437.819,164.55c0,0-1.079,40.672-0.709,40.672c10.901,0,19.926-8.639,20.316-19.621
		C457.825,174.374,449.046,164.949,437.819,164.55z"/>
	<circle style="fill:#BA6746;" cx="247.069" cy="42.141" r="42.141"/>
</g>
<polygon style="fill:#FFFFFF;" points="216.05,97.258 247.079,178.681 278.109,97.258 "/>
<path style="fill:#FF3C3C;" d="M260.571,125.098l-6.926-12.597l5.974-10.866c0.503-0.915,0.485-2.028-0.046-2.927
	c-0.531-0.899-1.498-1.451-2.543-1.451h-19.914c-1.045,0-2.011,0.551-2.543,1.451c-0.531,0.898-0.549,2.011-0.046,2.927
	l5.994,10.902l-6.906,12.563c-0.951,1.732-1.261,3.742-0.874,5.679l4.315,21.599l10.024,26.303l10.06-26.397l4.305-21.503
	C261.832,128.842,261.522,126.83,260.571,125.098z"/>
<g>
	<path style="fill:#FFB69E;" d="M360.299,512c-10.483,0-18.981-8.497-18.981-18.981V341.306c0-10.483,8.498-18.981,18.981-18.981
		c10.482,0,18.981,8.497,18.981,18.981v151.713C379.28,503.502,370.782,512,360.299,512z"/>
	<path style="fill:#FFB69E;" d="M406.456,512c-10.483,0-18.981-8.497-18.981-18.981V341.306c0-10.483,8.498-18.981,18.981-18.981
		c10.482,0,18.981,8.497,18.981,18.981v151.713C425.436,503.502,416.938,512,406.456,512z"/>
	<path style="fill:#FFB69E;" d="M484.81,326.374c-0.26-0.71-26.085-71.37-37.459-104.465c-7.339-21.354-19.644-32.181-36.572-32.181
		c-11.327,0-36.608,0-54.803,0c-16.93,0-29.235,10.827-36.572,32.181c-11.374,33.095-37.201,103.755-37.46,104.464
		c-3,8.205,1.219,17.287,9.424,20.287c8.184,2.993,17.28-1.201,20.286-9.424c0.221-0.603,18.766-51.342,31.435-87.205
		l-22.466,117.785c-1.054,5.44,3.139,10.467,8.627,10.467c24.44,0,83.835,0,108.256,0c5.505,0,9.681-5.023,8.627-10.467
		L423.666,250.03c12.668,35.862,31.214,86.603,31.435,87.205c3.009,8.23,12.109,12.416,20.286,9.424
		C483.591,343.661,487.81,334.578,484.81,326.374z"/>
</g>
<path style="fill:#297F58;" d="M423.666,250.031c1.162,3.289,2.373,6.704,3.615,10.193l30.157-9.609
	c-3.824-10.736-7.368-20.795-10.087-28.706c-7.339-21.354-19.644-32.181-36.572-32.181h-9.317
	c0.344,9.764-8.724,18.052-18.196,18.052c-10.152,0-17.675-8.258-18.185-18.052h-9.105c-16.93,0-29.235,10.827-36.572,32.181
	c-2.66,7.739-6.11,17.532-9.838,28.005l29.948,10.199c1.228-3.45,2.426-6.827,3.575-10.08l-22.466,117.785
	c-1.054,5.44,3.139,10.467,8.627,10.467h108.256c5.505,0,9.68-5.023,8.627-10.467L423.666,250.031z"/>
<g>
	<path style="fill:#55C7A6;" d="M423.828,250.179c-17.197-21.328-7.188-53.346-5.015-59.553c-2.551-0.594-5.228-0.898-8.034-0.898
		h-4.846c-1.349,4.135-4.335,14.719-4.366,27.464c-0.053,21.941,8.002,39.978,25.715,51.794l-0.001-0.003l-3.615-18.951
		c0.093,0.264,0.188,0.531,0.282,0.797L423.828,250.179z"/>
	<path style="fill:#55C7A6;" d="M365.396,217.191c-0.031-12.744-3.018-23.329-4.366-27.464h-5.052c-2.736,0-5.35,0.288-7.844,0.852
		c2.138,6.092,12.242,38.217-4.999,59.599l-0.592,2.723l-3.028,15.876C356.879,256.954,365.448,238.918,365.396,217.191z"/>
</g>
<g>
	<circle style="fill:#FFB69E;" cx="383.377" cy="139.235" r="37.778"/>
	<circle style="fill:#FFB69E;" cx="105.959" cy="138.042" r="40.795"/>
</g>
<g>
	<path style="fill:#414B82;" d="M128.577,512c-10.37,0-18.775-8.406-18.775-18.775V343.148c0-10.369,8.406-18.775,18.775-18.775
		c10.369,0,18.775,8.406,18.775,18.775v150.076C147.352,503.593,138.946,512,128.577,512z"/>
	<path style="fill:#414B82;" d="M83.252,512c-10.37,0-18.775-8.406-18.775-18.775V343.148c0-10.369,8.406-18.775,18.775-18.775
		s18.775,8.406,18.775,18.775v150.076C102.029,503.593,93.622,512,83.252,512z"/>
</g>
<path style="fill:#FFB69E;" d="M147.826,192.911h-41.932h-0.133H63.828c-20.633,0-37.502,16.527-37.605,36.92v114.948
	c0,8.641,7.004,15.646,15.646,15.646s15.646-7.005,15.646-15.646V229.909c0.015-2.986,3.023-5.705,6.313-5.705h0.649v118.944h82.876
	V224.204h0.473c3.288,0,6.297,2.719,6.312,5.627v114.948c0,8.641,7.004,15.646,15.646,15.646c8.641,0,15.646-7.005,15.646-15.646
	V229.753C185.328,209.438,168.459,192.911,147.826,192.911z"/>
<path style="fill:#FF3C3C;" d="M147.826,192.911h-24.62c0.004,0.073,0.016,0.143,0.019,0.217c0.44,9.828-8.679,18.198-18.198,18.198
	c-10.202,0-17.756-8.338-18.198-18.198c-0.003-0.073,0.005-0.143,0.003-0.217H63.828c-20.633,0-37.502,16.527-37.605,36.92v32.861
	h31.292V229.91c0.015-2.986,3.023-5.705,6.313-5.705h0.649v118.944h82.876V224.204h0.473c3.288,0,6.297,2.719,6.312,5.627v32.861
	h31.292v-32.938C185.328,209.438,168.459,192.911,147.826,192.911z"/>
<g>
	<path style="fill:#78BEFF;" d="M85.745,218.443c-0.027-11.082-2.29-20.536-3.767-25.532H68.85
		c2.645,7.992,10.641,36.921-4.373,57.196v16.645C79.154,255.033,85.793,238.508,85.745,218.443z"/>
	<path style="fill:#78BEFF;" d="M147.352,250.822c-15.745-20.304-7.587-49.825-4.911-57.911h-13.126
		c-1.477,4.996-3.74,14.45-3.767,25.532c-0.049,20.312,6.745,37.003,21.805,48.746v-16.367H147.352z"/>
</g>
<g>
</g>
<g>
</g>
<g>
</g>
<g>
</g>
<g>
</g>
<g>
</g>
<g>
</g>
<g>
</g>
<g>
</g>
<g>
</g>
<g>
</g>
<g>
</g>
<g>
</g>
<g>
</g>
<g>
</g>
</svg>
